<svg width="343" height="343" viewBox="0 0 343 343" fill="none" xmlns="http://www.w3.org/2000/svg">
<path d="M268.058 106.987H253.4H165.088V112.927C165.088 123.801 159.774 129.283 149.056 129.283H113.786V112.927H142.277C146.124 112.927 148.14 111.008 148.14 107.261H127.069C118.183 107.261 113.786 103.241 113.786 95.0165V70.6185C113.786 62.3944 118.275 58.3737 127.161 58.3737H151.804C160.69 58.3737 165.179 62.3944 165.179 70.6185V90.7217H176.997V58.2824H193.67V90.7217H208.786V58.2824H225.459V90.7217H240.849V58.2824H257.431V90.7217H265.034C269.89 90.7217 272.272 88.2545 272.272 83.4114V21H289.219V90.8131C289.219 101.687 283.631 107.078 272.455 107.078H268.058V106.987ZM148.14 86.8838V78.7511C148.14 76.1012 146.674 74.8219 143.651 74.8219H135.04C132.016 74.8219 130.459 76.1012 130.459 78.7511V86.8838C130.459 89.6252 132.016 90.9958 135.04 90.9958H143.651C146.582 90.9045 148.14 89.5338 148.14 86.8838ZM99.4948 43.6618C99.4948 45.9463 98.6703 47.9566 97.1129 49.6014C95.464 51.2462 93.5401 51.9773 91.1583 51.9773C88.868 51.9773 86.9442 51.1549 85.3868 49.51C83.8295 47.8652 83.005 45.9463 83.005 43.6618C83.005 41.3774 83.8295 39.4584 85.3868 37.8136C86.9442 36.1688 88.9596 35.3464 91.1583 35.3464C93.4485 35.3464 95.464 36.1688 97.1129 37.8136C98.7619 39.367 99.4948 41.286 99.4948 43.6618ZM80.5315 43.6618C80.5315 45.9463 79.707 47.8652 78.1497 49.51C76.5007 51.1549 74.5769 51.9773 72.2866 51.9773C69.9964 51.9773 68.0725 51.1549 66.4235 49.51C64.7746 47.8652 64.0417 45.9463 64.0417 43.6618C64.0417 41.3774 64.8662 39.367 66.4235 37.8136C68.0725 36.1688 69.9964 35.3464 72.2866 35.3464C74.5769 35.3464 76.5007 36.1688 78.1497 37.8136C79.707 39.367 80.5315 41.3774 80.5315 43.6618ZM107.007 106.439C107.007 117.404 103.159 129.009 95.464 136.685C87.7687 144.361 78.4245 148.199 67.4313 148.199C56.438 148.199 47.0938 144.361 39.3985 136.685C32.5278 129.832 28.7718 121.699 27.9473 112.196H44.7119C45.2616 117.13 47.5518 121.516 51.3995 125.445C55.98 130.106 61.2934 132.39 67.248 132.39C73.4775 132.39 78.7909 130.197 83.2798 125.628C87.7687 121.151 90.059 113.658 90.059 107.444H69.1718C60.194 107.444 55.7968 103.423 55.7968 95.1992V70.8012C55.7968 62.5772 60.2857 58.5565 69.1718 58.5565H93.6318C102.518 58.5565 107.007 62.6685 107.007 70.8926V106.439ZM90.059 86.9752V78.7511C90.059 76.1012 88.5932 74.8219 85.7533 74.8219H77.1419C74.302 74.8219 72.8362 76.1925 72.8362 78.7511V86.9752C72.8362 89.6252 74.302 90.9958 77.1419 90.9958H85.7533C88.5932 90.9958 90.059 89.6252 90.059 86.9752ZM314.687 106.987H298.014V21H314.687V106.987Z" fill="#8DC63F"/>
<path d="M136.047 217.007C136.047 226.967 131.1 231.993 121.389 231.993H89.1424V217.007H115.16C118.732 217.007 120.473 215.271 120.473 211.799H101.235C93.1732 211.799 89.0508 208.052 89.0508 200.65V178.354C89.0508 170.861 93.0816 167.115 101.235 167.115H123.863C132.016 167.115 136.047 170.861 136.047 178.354V196.721H142.093H143.65V167.206H158.858V196.721H168.294H171.408V178.263C171.408 170.77 175.439 167.023 183.592 167.023H205.854C214.007 167.023 218.038 170.77 218.038 178.263V196.721H226.466V167.023H261.095C269.248 167.023 273.279 170.77 273.279 178.171V196.63H274.378C278.867 196.63 281.066 194.345 281.066 189.959V132.848H296.548V196.721C296.548 206.224 291.876 211.159 282.44 211.616H281.157H263.843H227.199H208.694H168.294H153.636H142.185H136.138V217.007H136.047ZM120.565 193.157V185.664C120.565 183.289 119.191 182.101 116.442 182.101H108.564C105.815 182.101 104.441 183.289 104.441 185.664V193.157C104.441 195.625 105.815 196.904 108.564 196.904H116.442C119.191 196.904 120.565 195.625 120.565 193.157ZM168.385 153.499C168.385 155.601 167.652 157.337 166.187 158.89C164.721 160.353 162.889 161.084 160.782 161.084C158.674 161.084 156.934 160.353 155.468 158.799C154.002 157.337 153.27 155.509 153.27 153.499C153.27 151.397 154.002 149.661 155.468 148.108C156.934 146.646 158.674 145.823 160.782 145.823C162.889 145.823 164.721 146.554 166.187 148.016C167.652 149.57 168.385 151.397 168.385 153.499ZM150.888 153.499C150.888 155.601 150.155 157.337 148.689 158.799C147.223 160.261 145.483 161.084 143.376 161.084C141.269 161.084 139.528 160.353 138.062 158.799C136.596 157.337 135.864 155.509 135.864 153.499C135.864 151.397 136.596 149.661 138.062 148.108C139.528 146.646 141.36 145.823 143.376 145.823C145.483 145.823 147.223 146.554 148.689 148.108C150.155 149.661 150.888 151.397 150.888 153.499ZM202.373 153.225C202.373 155.327 201.64 157.063 200.174 158.616C198.708 160.078 196.876 160.901 194.769 160.901C192.662 160.901 190.921 160.17 189.456 158.616C187.898 157.063 187.165 155.327 187.165 153.225C187.165 151.123 187.898 149.387 189.456 147.925C190.921 146.463 192.753 145.732 194.769 145.732C196.876 145.732 198.617 146.463 200.174 147.925C201.548 149.296 202.373 151.123 202.373 153.225ZM202.647 193.066V185.573C202.647 183.197 201.273 182.009 198.708 182.009H190.83C188.173 182.009 186.89 183.197 186.89 185.573V193.066C186.89 195.533 188.173 196.721 190.83 196.721H198.708C201.273 196.721 202.647 195.442 202.647 193.066ZM257.705 193.066V185.573C257.705 183.197 256.331 182.009 253.766 182.009H242.223V196.813H253.766C256.423 196.721 257.705 195.442 257.705 193.066ZM317.343 211.616H302.136V132.848H317.343V211.616Z" fill="#2484C6"/>
<path d="M23 291.297C23 301.897 31.4281 309.299 41.8717 309.299C52.4069 309.299 60.7434 301.897 60.7434 291.297C60.7434 280.788 52.4069 273.295 41.8717 273.295C31.4281 273.295 23 280.788 23 291.297ZM138.52 308.476H147.04V292.668C147.04 291.023 147.223 289.469 147.681 288.099C148.872 283.987 152.354 281.063 156.934 281.063C161.24 281.063 162.339 283.895 162.339 288.099V303.907C162.339 307.105 163.713 308.476 166.92 308.476H175.073V301.257H172.416C171.5 301.257 170.95 300.709 170.95 299.795V286.363C170.95 277.316 166.553 273.295 158.949 273.295C151.987 273.295 148.231 277.499 146.765 280.423H146.674C146.674 280.423 146.765 279.692 146.765 278.961V277.956C146.765 275.58 145.3 274.118 142.276 274.118H134.398V281.428H137.055C137.971 281.428 138.52 281.885 138.52 282.89V308.476V308.476ZM100.594 291.297C100.594 301.074 107.739 309.299 119.099 309.299C127.71 309.299 132.932 304.09 132.932 304.09L129.359 298.15C129.359 298.15 125.237 301.988 119.74 301.988C114.519 301.988 110.121 298.79 109.388 292.759H133.207C133.207 292.759 133.39 290.657 133.39 289.561C133.39 280.514 127.985 273.295 118.091 273.295C107.739 273.295 100.594 280.697 100.594 291.297ZM109.663 286.819C110.579 282.525 113.694 279.875 118.091 279.875C121.573 279.875 124.412 282.707 124.596 286.819H109.663ZM65.3239 321.909H73.8436V307.654C73.8436 305.918 73.6604 304.638 73.6604 304.638H73.8436C73.8436 304.638 76.8668 309.207 83.6459 309.207C92.7153 309.207 99.4945 302.08 99.4945 291.206C99.4945 280.606 93.4482 273.204 84.1956 273.204C76.1339 273.204 73.2024 278.687 73.2024 278.687H73.1108V277.316C73.1108 275.489 72.0114 274.027 68.8051 274.027H61.2014V281.337H63.9498C64.8659 281.337 65.4155 281.794 65.4155 282.799V321.909H65.3239ZM73.6604 291.48C73.6604 283.895 77.8745 280.606 82.2718 280.606C87.3103 280.606 90.8831 284.809 90.8831 291.388C90.8831 298.15 86.8523 301.988 82.1802 301.988C76.5003 302.08 73.6604 296.78 73.6604 291.48ZM31.703 291.297C31.703 284.992 36.3751 280.606 41.8717 280.606C47.4599 280.606 52.132 284.992 52.132 291.297C52.132 297.693 47.4599 301.988 41.8717 301.988C36.2835 301.988 31.703 297.693 31.703 291.297Z" fill="#808184"/>
<path d="M281.525 291.296C281.525 301.896 287.479 309.298 296.824 309.298C304.244 309.298 307.175 304.455 307.175 304.455H307.359C307.359 304.455 307.175 305.643 307.175 307.47V322H315.787V282.89C315.787 281.884 316.337 281.428 317.253 281.428H320.001V274.117H312.397C309.283 274.117 308 275.397 308 277.133V278.321H307.908C307.908 278.321 305.068 273.295 297.19 273.295C288.029 273.295 281.525 280.331 281.525 291.296ZM174.799 303.084C174.799 303.084 179.654 309.207 189.09 309.207C196.602 309.207 202.373 305.186 202.373 298.698C202.373 287.276 184.051 288.372 184.051 282.981C184.051 280.971 186.158 279.874 189.182 279.874C191.105 279.874 193.487 280.697 193.487 282.25V283.986H201.091V280.422C201.091 274.848 193.671 273.295 188.998 273.295C181.853 273.295 175.623 276.402 175.623 283.347C175.623 294.495 193.762 294.403 193.762 299.246C193.762 301.531 191.747 302.627 189.09 302.627C183.227 302.627 178.83 297.602 178.83 297.602L174.799 303.084ZM203.748 291.296C203.748 301.896 212.084 309.298 222.619 309.298C233.154 309.298 241.491 301.896 241.491 291.296C241.491 280.788 233.154 273.295 222.619 273.295C212.084 273.295 203.748 280.788 203.748 291.296ZM212.359 291.296C212.359 284.991 217.031 280.605 222.528 280.605C228.116 280.605 232.788 284.991 232.788 291.296C232.788 297.693 228.116 301.988 222.528 301.988C217.031 301.988 212.359 297.693 212.359 291.296ZM242.59 291.296C242.59 301.896 251.018 309.298 261.462 309.298C271.997 309.298 280.334 301.896 280.334 291.296C280.334 280.788 271.997 273.295 261.462 273.295C250.927 273.295 242.59 280.788 242.59 291.296ZM251.202 291.296C251.202 284.991 255.874 280.605 261.37 280.605C266.959 280.605 271.631 284.991 271.631 291.296C271.631 297.693 266.959 301.988 261.37 301.988C255.874 301.988 251.202 297.693 251.202 291.296ZM298.747 302.079C293.709 302.079 290.228 297.876 290.228 291.296C290.228 284.534 294.167 280.697 298.839 280.697C304.61 280.697 307.45 285.905 307.45 291.296C307.359 298.789 303.145 302.079 298.747 302.079Z" fill="#808184"/>
<path d="M45.3531 213.351C48.4678 210.61 52.2238 209.148 56.7127 209.148H82.1804V180.272H82.0887V177.988C82.0887 171.043 77.9663 167.662 69.6297 167.662C59.0946 167.662 42.1467 168.21 38.0242 166.108C38.0242 181.003 40.1313 181.277 59.003 181.277C63.5835 181.277 65.9653 183.379 65.9653 187.491V195.075H65.5989H54.8805C45.9943 195.075 38.4823 197.817 32.3444 203.208C26.2065 208.599 23.0918 215.27 23.0918 223.311C23.0918 231.261 26.2065 238.115 32.3444 243.78C38.4823 249.445 45.9943 252.278 54.8805 252.278H82.1804V238.023H56.7127C52.2238 238.023 48.4678 236.653 45.3531 233.82C42.2383 230.987 40.681 227.606 40.681 223.585C40.5893 219.473 42.1467 216.092 45.3531 213.351Z" fill="#2484C6"/>
</svg>
